<svg width="500" height="500" viewBox="0 0 500 500" fill="none" xmlns="http://www.w3.org/2000/svg">
<rect width="500" height="500" fill="white"/>
<rect width="300" height="300" transform="translate(100 100)" fill="white"/>
<path d="M328.331 210.299C339.077 204.748 343.44 191.35 335.865 181.921C325.555 169.088 312.422 158.668 297.375 151.54C275.687 141.267 251.225 138.403 227.75 143.389C204.276 148.375 183.089 160.935 167.449 179.136C151.809 197.337 142.582 220.172 141.185 244.13C139.789 268.087 146.302 291.84 159.722 311.734C173.142 331.629 192.727 346.564 215.463 354.243C238.199 361.922 262.828 361.919 285.563 354.235C301.336 348.903 315.591 340.079 327.322 328.53C335.941 320.045 333.163 306.231 323.134 299.47C313.106 292.708 299.63 295.766 289.96 303.03C284.411 307.198 278.2 310.489 271.538 312.741C257.897 317.351 243.119 317.353 229.478 312.746C215.836 308.139 204.085 299.178 196.033 287.241C187.981 275.304 184.074 261.052 184.911 246.678C185.749 232.303 191.286 218.602 200.67 207.682C210.054 196.761 222.766 189.225 236.85 186.234C250.935 183.242 265.612 184.96 278.625 191.124C284.98 194.135 290.767 198.124 295.794 202.909C304.556 211.247 317.584 215.849 328.331 210.299Z" fill="#595959"/>
<path d="M276.002 334.306C279.524 345.877 291.914 352.585 302.555 346.836C311.41 342.051 319.594 336.051 326.859 328.983C339.378 316.803 348.802 301.804 354.343 285.24C359.885 268.675 361.383 251.025 358.713 233.764C356.044 216.502 349.283 200.13 338.997 186.013C328.71 171.897 315.196 160.446 299.582 152.616C283.968 144.787 266.708 140.807 249.242 141.007C231.776 141.208 214.612 145.584 199.182 153.77C190.229 158.52 182.01 164.472 174.743 171.436C166.009 179.804 168.6 193.654 178.536 200.551C188.472 207.447 201.987 204.573 211.755 197.44C214.277 195.599 216.934 193.934 219.709 192.462C228.967 187.55 239.266 184.925 249.745 184.804C260.225 184.684 270.581 187.072 279.949 191.77C289.317 196.467 297.426 203.338 303.598 211.808C309.77 220.278 313.826 230.101 315.428 240.458C317.03 250.815 316.131 261.405 312.806 271.344C309.481 281.282 303.827 290.282 296.315 297.59C294.064 299.78 291.665 301.8 289.14 303.636C279.358 310.75 272.481 322.735 276.002 334.306Z" fill="black"/>
</svg>
